<?xml version="1.0" standalone="no"?>
<!DOCTYPE svg PUBLIC "-//W3C//DTD SVG 20010904//EN"
 "http://www.w3.org/TR/2001/REC-SVG-20010904/DTD/svg10.dtd">
<svg version="1.0" xmlns="http://www.w3.org/2000/svg"
 width="1033.000000pt" height="1033.000000pt" viewBox="0 0 1033.000000 1033.000000"
 preserveAspectRatio="xMidYMid meet">
<metadata>
Created by potrace 1.14, written by Peter Selinger 2001-2017
</metadata>
<g transform="translate(0.000000,1033.000000) scale(0.100000,-0.100000)"
fill="#000000" stroke="none">
<path d="M0 8675 l0 -1655 1068 0 c1532 -1 1504 -1 1520 13 9 7 21 27 29 45 7
17 18 32 23 32 6 0 10 8 10 18 0 10 7 27 15 38 8 10 15 27 15 36 0 10 13 30
30 45 25 22 30 34 30 72 1 50 26 91 55 91 12 0 15 5 10 20 -4 13 1 34 14 56
12 19 21 41 21 48 0 8 7 19 15 26 8 7 15 20 15 30 0 9 9 25 20 35 11 10 20 26
20 36 0 24 58 81 98 96 38 13 48 2 52 -57 5 -66 1 -80 -21 -80 -19 0 -20 -4
-15 -34 4 -20 2 -37 -4 -41 -5 -3 -10 -19 -10 -36 0 -16 -4 -29 -10 -29 -5 0
-10 -7 -10 -15 0 -8 5 -14 12 -12 7 1 12 -14 14 -37 2 -31 -1 -39 -16 -43 -11
-3 -20 -13 -20 -22 0 -9 -5 -22 -11 -28 -7 -7 -3 -12 15 -17 30 -7 41 -40 32
-96 -3 -21 -2 -41 3 -44 12 -8 2 -46 -11 -46 -6 0 -7 7 -4 15 10 27 -21 27
-63 0 -23 -14 -46 -23 -51 -20 -5 3 -11 1 -14 -3 -3 -5 10 -16 29 -25 26 -13
35 -23 35 -42 0 -24 2 -25 75 -25 41 0 75 4 75 9 0 6 12 6 32 0 18 -5 134 -9
258 -10 199 -1 222 -2 195 -14 -16 -8 -41 -15 -55 -15 -14 -1 -45 -10 -70 -21
-25 -11 -36 -18 -25 -15 69 17 116 30 155 44 25 9 92 17 153 19 100 4 107 6
102 23 -3 10 -2 21 3 24 5 3 10 17 10 31 -1 60 61 143 190 255 34 29 62 60 62
67 0 7 3 13 8 13 12 0 112 97 112 109 0 6 7 14 15 17 9 4 15 11 14 18 -3 22
26 76 43 82 10 3 23 14 28 25 6 10 15 19 21 19 5 0 44 26 86 58 115 87 193
123 193 90 0 -7 6 -2 13 12 15 29 35 34 232 50 77 6 160 15 185 21 25 5 71 12
103 14 32 2 67 7 78 10 29 9 23 -12 -12 -44 -22 -21 -29 -34 -25 -48 4 -12 -1
-30 -14 -46 -12 -15 -20 -40 -20 -65 0 -22 -7 -55 -15 -75 -8 -19 -11 -37 -8
-41 4 -3 1 -6 -6 -6 -9 0 -11 -8 -7 -24 4 -16 1 -26 -8 -29 -19 -7 -56 20 -56
41 -1 16 -2 15 -14 -1 -12 -16 -14 -16 -20 -2 -3 9 -2 14 2 11 4 -3 13 4 20
15 7 11 8 19 2 19 -5 0 -10 5 -10 11 0 6 -6 17 -14 24 -11 12 -17 11 -34 -5
-11 -10 -22 -16 -26 -13 -3 3 -8 -2 -12 -11 -3 -9 -12 -16 -19 -16 -7 0 -16
-15 -19 -34 -4 -21 -14 -37 -25 -41 -11 -3 -22 -16 -25 -29 -6 -24 -53 -54
-178 -113 -46 -22 -62 -37 -82 -73 -29 -52 -61 -77 -80 -61 -19 16 -103 24
-111 11 -5 -8 -11 -8 -21 1 -11 9 -14 9 -14 0 0 -14 -85 -55 -115 -56 -11 -1
-19 -6 -18 -12 1 -6 -4 -16 -12 -23 -7 -6 -11 -18 -8 -26 7 -18 -12 -18 -31 1
-16 17 -46 20 -46 6 0 -5 4 -21 10 -35 8 -23 7 -26 -15 -32 -14 -3 -32 -1 -40
6 -11 9 -16 8 -26 -8 -8 -12 -20 -17 -35 -14 -17 3 -24 0 -24 -12 0 -9 -7 -16
-15 -16 -9 0 -15 -9 -15 -21 0 -12 -8 -28 -18 -35 -14 -11 134 -13 891 -14
691 0 906 -3 901 -12 -5 -8 -2 -9 12 -2 10 5 214 10 452 12 429 2 433 3 410
22 -20 16 -21 22 -11 39 8 13 9 22 3 26 -32 20 10 101 48 93 21 -4 20 -56 -1
-108 -3 -8 -5 -27 -4 -42 l2 -28 909 0 908 0 -23 -21 c-13 -11 -17 -17 -9 -13
8 4 23 14 32 22 31 26 224 9 328 -28 46 -17 89 -29 95 -27 5 2 -6 9 -25 15
-51 16 -124 43 -129 48 -3 2 168 4 380 4 211 0 565 0 787 0 l402 0 0 1655 0
1655 -5165 0 -5165 0 0 -1655z m5484 949 c3 -8 2 -13 -2 -10 -4 2 -7 -33 -7
-77 -1 -45 -4 -116 -7 -157 -3 -41 -2 -83 3 -92 6 -10 6 -18 2 -18 -4 0 -9
-26 -10 -57 -5 -126 -9 -162 -20 -175 -12 -14 -13 -98 -1 -98 4 0 5 -14 1 -32
-5 -26 -3 -30 10 -25 9 3 18 1 20 -6 6 -18 -4 -48 -14 -41 -13 7 -23 -46 -11
-58 11 -11 5 -36 -15 -56 -10 -10 -14 -6 -21 20 l-9 33 -16 -57 c-10 -31 -17
-63 -17 -71 0 -9 -4 -18 -9 -21 -4 -3 -6 -17 -4 -30 4 -21 2 -24 -16 -19 -18
5 -20 2 -15 -33 4 -29 3 -35 -5 -24 -6 9 -11 10 -11 3 0 -6 -3 -19 -7 -29 -4
-12 -3 -15 6 -10 9 6 12 0 9 -20 -3 -27 -6 -29 -40 -27 -34 2 -38 0 -44 -25
-3 -15 -10 -37 -15 -50 -5 -13 -6 -29 -2 -35 9 -14 5 -48 -7 -62 -5 -6 -5 -17
0 -24 4 -8 6 -19 4 -25 -2 -6 6 -16 18 -21 13 -6 24 -18 26 -27 3 -15 -4 -18
-34 -18 -21 0 -51 4 -68 9 -17 5 -76 19 -131 31 -55 12 -125 30 -155 40 -30
10 -76 24 -102 31 -27 7 -48 17 -48 22 0 11 46 93 74 132 11 17 32 51 46 76
14 25 47 84 74 130 27 46 61 107 76 134 14 28 39 70 55 95 103 162 194 350
272 565 37 104 74 177 88 172 6 -3 17 4 24 14 6 11 16 17 21 14 6 -4 13 1 16
9 8 20 10 20 18 0z m616 -1180 c0 -9 14 -21 30 -27 36 -14 42 -42 7 -33 -32 8
-163 -30 -190 -54 -13 -13 -28 -18 -40 -14 -21 7 -18 -5 11 -38 11 -14 18 -15
28 -7 10 8 25 7 59 -4 25 -9 45 -12 45 -7 0 5 7 7 15 4 8 -4 15 -1 15 7 0 7 3
9 7 6 3 -4 12 -2 20 5 11 9 17 6 29 -10 19 -27 31 -28 39 -2 4 13 11 17 18 13
23 -15 82 -9 96 10 8 11 21 17 32 14 11 -3 22 -1 25 4 3 5 22 9 42 10 20 0 46
4 57 8 12 5 28 3 41 -6 12 -8 26 -13 30 -12 29 5 44 -3 44 -23 0 -26 71 -71
95 -62 16 6 37 -11 48 -39 4 -11 -1 -26 -15 -42 -18 -21 -28 -24 -60 -20 -21
3 -38 1 -38 -5 0 -21 -45 -50 -78 -50 -36 0 -71 -30 -72 -61 0 -9 -7 -19 -15
-23 -8 -3 -15 -12 -15 -20 0 -22 -61 -69 -73 -57 -7 7 -7 14 1 24 13 16 12 59
-3 70 -6 4 -2 7 10 5 14 -2 20 3 20 15 0 10 5 21 10 25 12 9 16 92 4 92 -4 0
-13 -9 -19 -20 -8 -15 -17 -19 -35 -14 -14 3 -25 2 -25 -3 0 -5 -15 -14 -34
-21 -28 -11 -34 -18 -40 -52 -5 -32 -9 -38 -24 -33 -14 5 -15 3 -4 -8 17 -18
15 -28 -5 -23 -15 4 -18 -2 -17 -38 1 -64 2 -68 22 -62 15 5 15 4 -2 -10 -10
-8 -16 -22 -13 -30 3 -8 -1 -17 -8 -20 -9 -3 -12 -13 -9 -23 5 -16 4 -16 -8
-2 -35 42 -254 109 -359 109 -22 0 -57 14 -99 40 -63 38 -118 66 -190 98 -19
8 -46 23 -60 32 -14 10 -50 25 -80 33 -31 9 -66 27 -78 40 -18 20 -20 28 -12
57 6 19 14 41 19 49 13 20 41 6 42 -21 1 -17 2 -18 6 -5 6 22 14 22 41 -4 26
-23 46 -20 107 20 22 14 49 30 60 36 11 6 24 20 30 33 11 25 23 28 31 8 8 -20
62 -18 175 4 130 27 164 42 185 85 19 40 55 64 97 65 18 0 27 -5 27 -16z
m-827 -28 c9 5 9 4 0 -6 -13 -15 -37 -4 -26 13 5 8 8 8 11 -1 2 -7 9 -9 15 -6z
m1557 -162 c0 -14 -3 -14 -15 -4 -12 10 -15 9 -15 -7 0 -11 -9 -28 -20 -38
-18 -16 -20 -16 -26 -1 -6 15 -7 15 -19 -1 -23 -32 -27 -7 -4 31 18 32 26 36
60 36 29 0 39 -4 39 -16z m-3000 -90 c0 -9 5 -12 12 -8 8 5 9 2 4 -11 -5 -14
-4 -16 7 -7 15 13 27 6 27 -14 0 -10 -9 -12 -32 -7 -42 7 -49 14 -42 41 7 25
24 30 24 6z m135 6 c3 -5 1 -10 -4 -10 -6 0 -11 5 -11 10 0 6 2 10 4 10 3 0 8
-4 11 -10z m-97 -132 c-7 -19 -38 -22 -38 -4 0 10 9 16 21 16 12 0 19 -5 17
-12z m1571 -202 c28 -19 64 -50 79 -68 14 -18 29 -35 32 -38 30 -30 31 -39 6
-78 -14 -22 -39 -50 -55 -62 -17 -12 -31 -28 -31 -35 0 -36 -74 -37 -119 -1
-7 6 -29 12 -48 13 -20 1 -38 4 -40 7 -3 3 11 24 30 48 40 49 61 94 52 116 -3
7 4 26 15 42 11 15 20 42 20 59 0 17 2 31 4 31 2 0 27 -15 55 -34z m-2113 -48
c-4 -13 -9 -35 -12 -50 -4 -17 -11 -25 -20 -21 -15 6 -15 7 -18 -56 -1 -29 -8
-48 -20 -57 -11 -8 -16 -19 -12 -29 3 -9 -1 -26 -9 -38 -20 -29 -19 -40 5 -34
10 3 24 -1 30 -8 9 -10 6 -16 -9 -25 -23 -12 -31 -72 -8 -67 7 1 13 -11 13
-34 2 -32 -1 -36 -17 -32 -11 3 -19 2 -18 -3 2 -15 -1 -28 -10 -43 -8 -12 -12
-12 -26 2 -9 10 -26 17 -39 17 -22 0 -46 17 -46 32 0 4 9 8 20 8 21 0 27 15
10 25 -6 4 -5 14 1 29 7 15 8 35 1 58 -7 25 -6 39 3 52 9 12 11 27 4 49 -8 30
-5 48 23 127 4 14 21 39 36 55 16 17 31 38 35 48 5 12 18 17 48 17 38 0 41 -2
35 -22z m3015 -165 c16 -10 29 -23 29 -30 0 -7 15 -19 33 -27 17 -8 26 -15 20
-15 -7 -1 -13 -8 -13 -18 0 -11 -14 -3 -46 28 -44 43 -71 79 -58 79 3 0 19 -8
35 -17z m-1427 -70 c-5 -5 -12 -12 -15 -16 -3 -5 -9 -2 -12 7 -5 12 0 16 15
16 12 0 17 -3 12 -7z m-2149 -84 c10 -15 -34 -59 -51 -52 -19 7 -18 15 6 41
23 24 35 27 45 11z m280 -218 c3 -5 1 -12 -5 -16 -5 -3 -10 1 -10 9 0 18 6 21
15 7z m3603 -23 c-6 -18 -28 -21 -28 -4 0 9 7 16 16 16 9 0 14 -5 12 -12z
m-3468 -28 c0 -10 3 -11 8 -3 5 8 12 8 26 -2 18 -13 14 -41 -5 -30 -5 4 -9 3
-9 -2 0 -4 -13 -15 -29 -25 -28 -16 -30 -15 -52 8 -14 15 -17 24 -10 24 11 0
11 3 1 15 -18 21 -4 34 35 32 23 -1 35 -7 35 -17z m1025 -40 c3 -5 1 -10 -4
-10 -6 0 -11 5 -11 10 0 6 2 10 4 10 3 0 8 -4 11 -10z m-1175 -85 c0 -8 -6
-12 -14 -9 -8 3 -12 12 -9 20 6 17 23 9 23 -11z m66 -22 c-10 -10 -19 5 -10
18 6 11 8 11 12 0 2 -7 1 -15 -2 -18z"/>
<path d="M5455 9480 c-3 -5 -1 -10 4 -10 6 0 11 5 11 10 0 6 -2 10 -4 10 -3 0
-8 -4 -11 -10z"/>
<path d="M5873 8285 c-3 -9 -3 -18 -1 -21 3 -3 8 4 11 16 6 23 -1 27 -10 5z"/>
<path d="M5803 8274 c-19 -8 -33 -21 -33 -31 0 -13 3 -14 12 -5 7 7 25 12 40
12 21 0 28 5 28 20 0 23 -4 23 -47 4z"/>
<path d="M5650 8252 c-29 -13 -60 -37 -60 -45 0 -15 53 3 67 23 8 11 21 17 35
14 21 -4 22 -4 3 5 -24 11 -26 12 -45 3z"/>
<path d="M6615 8160 c-3 -5 -1 -10 4 -10 6 0 11 5 11 10 0 6 -2 10 -4 10 -3 0
-8 -4 -11 -10z"/>
<path d="M6477 8143 c-4 -6 0 -19 8 -29 11 -15 14 -16 15 -4 0 21 -16 44 -23
33z"/>
<path d="M4590 7420 c0 -5 5 -10 10 -10 6 0 10 5 10 10 0 6 -4 10 -10 10 -5 0
-10 -4 -10 -10z"/>
<path d="M2812 7363 c5 -25 28 -28 28 -4 0 12 -6 21 -16 21 -9 0 -14 -7 -12
-17z"/>
<path d="M2939 7265 c-16 -16 -35 -25 -56 -25 -18 0 -33 -4 -33 -10 0 -5 13
-10 29 -10 17 0 33 5 36 10 3 6 14 10 24 10 12 0 20 9 23 25 6 31 6 31 -23 0z"/>
<path d="M2850 7170 c0 -29 4 -40 13 -38 18 7 20 53 3 68 -14 11 -16 7 -16
-30z"/>
<path d="M2900 7195 c0 -8 2 -15 4 -15 2 0 6 7 10 15 3 8 1 15 -4 15 -6 0 -10
-7 -10 -15z"/>
<path d="M3060 6984 l-35 -14 35 5 c19 3 39 10 44 15 14 14 -2 12 -44 -6z"/>
<path d="M2990 6960 c-8 -5 -10 -10 -5 -10 6 0 17 5 25 10 8 5 11 10 5 10 -5
0 -17 -5 -25 -10z"/>
<path d="M3298 6951 c-26 -4 -50 -10 -54 -14 -8 -8 77 2 116 14 31 9 6 9 -62
0z"/>
<path d="M8955 6930 c27 -12 43 -12 25 0 -8 5 -22 9 -30 9 -10 0 -8 -3 5 -9z"/>
<path d="M2905 6920 c-3 -5 -1 -10 4 -10 6 0 11 5 11 10 0 6 -2 10 -4 10 -3 0
-8 -4 -11 -10z"/>
<path d="M3198 6923 c7 -3 16 -2 19 1 4 3 -2 6 -13 5 -11 0 -14 -3 -6 -6z"/>
<path d="M1756 6903 c-6 -14 -5 -15 5 -6 7 7 10 15 7 18 -3 3 -9 -2 -12 -12z"/>
<path d="M2868 6903 c7 -3 16 -2 19 1 4 3 -2 6 -13 5 -11 0 -14 -3 -6 -6z"/>
<path d="M2777 6878 c-32 -11 -56 -22 -54 -24 4 -5 127 36 127 42 0 6 -11 4
-73 -18z"/>
<path d="M8300 6890 c-9 -6 -10 -10 -3 -10 6 0 15 5 18 10 8 12 4 12 -15 0z"/>
<path d="M2684 6835 c-10 -8 -14 -15 -8 -15 6 0 17 7 24 15 16 19 9 19 -16 0z"/>
<path d="M4543 6790 c-13 -5 -23 -11 -23 -14 0 -7 40 6 46 15 6 10 6 10 -23
-1z"/>
<path d="M8206 6777 c3 -10 9 -15 12 -12 3 3 0 11 -7 18 -10 9 -11 8 -5 -6z"/>
<path d="M2631 6734 c-6 -21 -9 -40 -6 -42 2 -2 8 13 14 34 6 21 9 40 6 42 -2
2 -8 -13 -14 -34z"/>
<path d="M9648 6763 c7 -3 16 -2 19 1 4 3 -2 6 -13 5 -11 0 -14 -3 -6 -6z"/>
<path d="M4478 6753 c7 -3 16 -2 19 1 4 3 -2 6 -13 5 -11 0 -14 -3 -6 -6z"/>
<path d="M7251 6734 c0 -11 3 -14 6 -6 3 7 2 16 -1 19 -3 4 -6 -2 -5 -13z"/>
<path d="M9553 6743 c9 -2 25 -2 35 0 9 3 1 5 -18 5 -19 0 -27 -2 -17 -5z"/>
<path d="M9498 6733 c7 -3 16 -2 19 1 4 3 -2 6 -13 5 -11 0 -14 -3 -6 -6z"/>
<path d="M8070 6680 c-8 -5 -10 -10 -5 -10 6 0 17 5 25 10 8 5 11 10 5 10 -5
0 -17 -5 -25 -10z"/>
<path d="M2394 6656 c11 -9 24 -16 30 -16 12 0 7 5 -24 19 -24 11 -24 11 -6
-3z"/>
<path d="M6604 6601 c-23 -9 -56 -29 -75 -44 -19 -16 -23 -22 -9 -13 14 9 52
29 85 45 65 32 65 39 -1 12z"/>
<path d="M7947 6601 c-40 -26 -47 -36 -12 -18 42 23 62 37 50 36 -5 0 -22 -8
-38 -18z"/>
<path d="M2538 6573 c6 -2 18 -2 25 0 6 3 1 5 -13 5 -14 0 -19 -2 -12 -5z"/>
<path d="M7840 6543 c-25 -13 -34 -21 -20 -17 30 8 80 33 80 39 0 8 -13 3 -60
-22z"/>
<path d="M6458 6514 c-16 -8 -28 -17 -28 -19 0 -10 16 -4 40 15 30 23 25 25
-12 4z"/>
<path d="M7735 6500 c-3 -6 1 -7 9 -4 18 7 21 14 7 14 -6 0 -13 -4 -16 -10z"/>
<path d="M6360 6466 c-19 -13 -48 -39 -65 -57 l-30 -34 37 34 c20 18 53 44 75
57 21 13 34 23 28 23 -5 0 -26 -11 -45 -23z"/>
<path d="M7649 6449 c-23 -19 -23 -20 -2 -10 12 6 25 16 28 21 10 16 -1 12
-26 -11z"/>
<path d="M1322 6420 c0 -14 2 -19 5 -12 2 6 2 18 0 25 -3 6 -5 1 -5 -13z"/>
<path d="M5218 6433 c12 -2 32 -2 45 0 12 2 2 4 -23 4 -25 0 -35 -2 -22 -4z"/>
<path d="M5503 6433 c9 -2 23 -2 30 0 6 3 -1 5 -18 5 -16 0 -22 -2 -12 -5z"/>
<path d="M5458 6423 c7 -3 16 -2 19 1 4 3 -2 6 -13 5 -11 0 -14 -3 -6 -6z"/>
<path d="M7599 6413 c-13 -16 -12 -17 4 -4 9 7 17 15 17 17 0 8 -8 3 -21 -13z"/>
<path d="M5611 6406 c2 -2 29 -6 59 -9 36 -4 46 -3 30 3 -25 8 -97 13 -89 6z"/>
<path d="M1656 6365 c-9 -26 -7 -32 5 -12 6 10 9 21 6 23 -2 3 -7 -2 -11 -11z"/>
<path d="M5790 6376 c0 -8 141 -48 147 -43 3 4 -8 9 -23 13 -16 3 -48 12 -72
20 -46 15 -52 16 -52 10z"/>
<path d="M9990 6376 c0 -2 7 -7 16 -10 8 -3 12 -2 9 4 -6 10 -25 14 -25 6z"/>
<path d="M6960 6361 c-15 -5 4 -7 52 -7 43 1 78 4 78 9 0 9 -97 8 -130 -2z"/>
<path d="M6230 6344 c-17 -9 -20 -14 -9 -14 9 0 22 7 29 15 15 18 13 18 -20
-1z"/>
<path d="M6895 6350 c-4 -6 3 -10 14 -10 25 0 27 6 6 13 -8 4 -17 2 -20 -3z"/>
<path d="M7163 6353 c15 -2 37 -2 50 0 12 2 0 4 -28 4 -27 0 -38 -2 -22 -4z"/>
<path d="M7255 6349 c-3 -4 14 -10 37 -14 24 -3 52 -9 63 -12 11 -3 17 -3 14
1 -11 11 -109 33 -114 25z"/>
<path d="M6833 6343 c9 -2 23 -2 30 0 6 3 -1 5 -18 5 -16 0 -22 -2 -12 -5z"/>
<path d="M9295 6340 c-27 -7 -28 -8 -5 -8 14 0 34 3 45 8 25 11 2 11 -40 0z"/>
<path d="M9368 6343 c7 -3 16 -2 19 1 4 3 -2 6 -13 5 -11 0 -14 -3 -6 -6z"/>
<path d="M6175 6320 c-3 -6 1 -7 9 -4 18 7 21 14 7 14 -6 0 -13 -4 -16 -10z"/>
<path d="M9175 6325 c-5 -2 -27 -6 -49 -10 -21 -3 -36 -8 -34 -10 2 -2 39 2
83 10 44 7 64 13 45 13 -19 0 -39 -1 -45 -3z"/>
<path d="M1347 6309 c7 -7 15 -10 18 -7 3 3 -2 9 -12 12 -14 6 -15 5 -6 -5z"/>
<path d="M7388 6313 c7 -3 16 -2 19 1 4 3 -2 6 -13 5 -11 0 -14 -3 -6 -6z"/>
<path d="M7437 6299 c7 -7 15 -10 18 -7 3 3 -2 9 -12 12 -14 6 -15 5 -6 -5z"/>
<path d="M6135 6290 c-3 -5 -2 -10 4 -10 5 0 13 5 16 10 3 6 2 10 -4 10 -5 0
-13 -4 -16 -10z"/>
<path d="M8985 6280 c-28 -7 -28 -8 -5 -9 14 0 32 4 40 9 17 11 8 11 -35 0z"/>
<path d="M7471 6277 c2 -1 13 -9 24 -17 19 -14 19 -14 6 3 -7 9 -18 17 -24 17
-6 0 -8 -1 -6 -3z"/>
<path d="M6115 6256 c-11 -12 -35 -63 -35 -74 0 -4 12 13 25 37 25 43 29 60
10 37z"/>
<path d="M4218 6243 c7 -3 16 -2 19 1 4 3 -2 6 -13 5 -11 0 -14 -3 -6 -6z"/>
<path d="M8840 6240 c-13 -9 -13 -10 0 -10 8 0 22 5 30 10 13 9 13 10 0 10 -8
0 -22 -5 -30 -10z"/>
<path d="M4528 6223 c6 -2 18 -2 25 0 6 3 1 5 -13 5 -14 0 -19 -2 -12 -5z"/>
<path d="M7567 6219 c7 -7 15 -10 18 -7 3 3 -2 9 -12 12 -14 6 -15 5 -6 -5z"/>
<path d="M1534 6211 c7 -11 46 -35 46 -28 0 3 -12 12 -26 22 -15 9 -23 12 -20
6z"/>
<path d="M4653 6203 c9 -2 25 -2 35 0 9 3 1 5 -18 5 -19 0 -27 -2 -17 -5z"/>
<path d="M3718 6193 c7 -3 16 -2 19 1 4 3 -2 6 -13 5 -11 0 -14 -3 -6 -6z"/>
<path d="M3828 6193 c7 -3 16 -2 19 1 4 3 -2 6 -13 5 -11 0 -14 -3 -6 -6z"/>
<path d="M8435 6180 c10 -11 20 -20 23 -20 3 0 -3 9 -13 20 -10 11 -20 20 -23
20 -3 0 3 -9 13 -20z"/>
<path d="M136 6171 c-3 -5 16 -6 42 -4 69 7 74 11 15 12 -28 1 -54 -3 -57 -8z"/>
<path d="M8632 6156 c-52 -37 -51 -41 3 -11 61 35 62 35 44 35 -8 -1 -29 -11
-47 -24z"/>
<path d="M37 6148 c-21 -11 -36 -22 -33 -25 2 -2 19 3 38 13 18 9 44 20 58 25
l25 7 -25 0 c-14 0 -42 -10 -63 -20z"/>
<path d="M273 6163 c15 -2 37 -2 50 0 12 2 0 4 -28 4 -27 0 -38 -2 -22 -4z"/>
<path d="M358 6163 c6 -2 18 -2 25 0 6 3 1 5 -13 5 -14 0 -19 -2 -12 -5z"/>
<path d="M3360 6159 c0 -5 5 -7 10 -4 6 3 10 8 10 11 0 2 -4 4 -10 4 -5 0 -10
-5 -10 -11z"/>
<path d="M3644 6154 c-18 -14 -18 -15 4 -4 12 6 22 13 22 15 0 8 -5 6 -26 -11z"/>
<path d="M8550 6106 c7 -7 13 -7 20 0 6 6 3 10 -10 10 -13 0 -16 -4 -10 -10z"/>
<path d="M420 6055 c-7 -9 -11 -18 -8 -20 3 -3 11 1 18 10 7 9 11 18 8 20 -3
3 -11 -1 -18 -10z"/>
<path d="M1555 5979 c-4 -6 -5 -12 -2 -15 2 -3 7 2 10 11 7 17 1 20 -8 4z"/>
<path d="M3074 5964 c-18 -14 -18 -15 4 -4 12 6 22 13 22 15 0 8 -5 6 -26 -11z"/>
<path d="M725 5963 c17 -3 34 -9 40 -14 5 -5 13 -9 19 -9 5 0 1 7 -10 15 -10
8 -32 14 -49 13 l-30 -1 30 -4z"/>
<path d="M7848 5949 c17 -12 32 -23 32 -25 0 -2 -1089 -4 -2421 -4 -1928 0
-2419 3 -2413 13 5 9 4 9 -7 0 -10 -10 -87 -13 -316 -13 -283 0 -302 1 -297
18 5 16 5 16 -6 0 -10 -17 -42 -18 -440 -18 -400 0 -429 1 -433 18 -4 16 -5
16 -6 -1 -1 -17 -21 -18 -358 -17 -197 1 -409 1 -470 1 l-113 -1 0 -30 0 -30
238 0 c130 -1 340 0 465 0 l229 1 -6 -23 -6 -23 12 23 11 23 2466 -1 c1356 0
3196 -1 4089 0 l1622 0 0 30 0 30 -908 0 -907 0 -37 25 c-20 14 -41 25 -45 25
-4 0 7 -10 25 -21z"/>
<path d="M6073 5843 c9 -2 25 -2 35 0 9 3 1 5 -18 5 -19 0 -27 -2 -17 -5z"/>
<path d="M4921 5754 c0 -11 3 -14 6 -6 3 7 2 16 -1 19 -3 4 -6 -2 -5 -13z"/>
<path d="M2490 5730 c0 -5 5 -10 11 -10 5 0 7 5 4 10 -3 6 -8 10 -11 10 -2 0
-4 -4 -4 -10z"/>
<path d="M1541 5714 c0 -11 3 -14 6 -6 3 7 2 16 -1 19 -3 4 -6 -2 -5 -13z"/>
<path d="M2578 5713 c12 -2 32 -2 45 0 12 2 2 4 -23 4 -25 0 -35 -2 -22 -4z"/>
<path d="M9708 5613 c7 -3 16 -2 19 1 4 3 -2 6 -13 5 -11 0 -14 -3 -6 -6z"/>
<path d="M5158 5553 c6 -2 18 -2 25 0 6 3 1 5 -13 5 -14 0 -19 -2 -12 -5z"/>
<path d="M9250 5540 c-23 -7 -23 -8 -3 -9 12 -1 25 4 28 9 3 6 5 10 3 9 -2 -1
-14 -5 -28 -9z"/>
<path d="M216 5515 c-9 -26 -7 -32 5 -12 6 10 9 21 6 23 -2 3 -7 -2 -11 -11z"/>
<path d="M5303 5523 c9 -2 23 -2 30 0 6 3 -1 5 -18 5 -16 0 -22 -2 -12 -5z"/>
<path d="M5360 5520 c8 -5 22 -9 30 -9 10 0 8 3 -5 9 -27 12 -43 12 -25 0z"/>
<path d="M9188 5523 c6 -2 18 -2 25 0 6 3 1 5 -13 5 -14 0 -19 -2 -12 -5z"/>
<path d="M9140 5510 c-8 -5 -10 -10 -5 -10 6 0 17 5 25 10 8 5 11 10 5 10 -5
0 -17 -5 -25 -10z"/>
<path d="M5418 5503 c7 -3 16 -2 19 1 4 3 -2 6 -13 5 -11 0 -14 -3 -6 -6z"/>
<path d="M5480 5490 c-24 -8 -23 -8 8 -9 20 -1 31 3 27 9 -3 6 -7 10 -8 9 -1
-1 -13 -5 -27 -9z"/>
<path d="M1522 5470 c0 -14 2 -19 5 -12 2 6 2 18 0 25 -3 6 -5 1 -5 -13z"/>
<path d="M1956 5463 c-6 -14 -5 -15 5 -6 7 7 10 15 7 18 -3 3 -9 -2 -12 -12z"/>
<path d="M191 5434 c0 -11 3 -14 6 -6 3 7 2 16 -1 19 -3 4 -6 -2 -5 -13z"/>
<path d="M8550 5435 c14 -8 32 -14 40 -14 8 0 0 6 -19 14 -42 19 -54 19 -21 0z"/>
<path d="M2474 5339 c-19 -22 -19 -22 4 -8 12 8 22 17 22 21 0 12 -6 9 -26
-13z"/>
<path d="M8758 5300 c42 -26 56 -26 17 0 -16 11 -34 20 -40 20 -5 0 5 -9 23
-20z"/>
<path d="M2405 5290 c-3 -6 1 -7 9 -4 18 7 21 14 7 14 -6 0 -13 -4 -16 -10z"/>
<path d="M5854 5286 c-49 -15 -93 -46 -94 -63 0 -16 9 -16 40 2 32 18 94 19
128 1 57 -30 86 -73 117 -172 l13 -41 -67 5 c-50 3 -77 0 -103 -12 -132 -63
-185 -258 -109 -409 22 -45 27 -64 18 -69 -8 -5 -5 -8 8 -8 12 0 38 -9 60 -20
53 -27 95 -34 159 -26 70 9 131 60 172 143 27 55 28 65 28 203 1 160 -10 221
-55 311 -28 56 -85 116 -136 142 -42 22 -131 29 -179 13z m191 -347 c18 -18
20 -33 20 -168 0 -114 -3 -152 -14 -165 -8 -10 -16 -27 -16 -38 -2 -22 -30
-48 -51 -48 -20 0 -46 31 -40 47 3 8 1 11 -4 8 -18 -11 -28 61 -26 190 1 102
5 137 18 162 26 47 72 52 113 12z"/>
<path d="M6540 5260 c-12 -16 -19 -30 -16 -30 2 0 14 14 26 30 12 17 19 30 16
30 -2 0 -14 -13 -26 -30z"/>
<path d="M2328 5260 c-20 -11 -39 -24 -43 -29 -4 -8 77 32 94 46 13 10 -19 -1
-51 -17z"/>
<path d="M1000 5259 c-96 -5 -155 -13 -203 -29 -123 -39 -184 -121 -160 -213
6 -23 9 -45 7 -48 -2 -4 -26 -16 -52 -25 -57 -22 -132 -63 -132 -73 0 -3 45
15 101 42 83 40 103 46 116 36 22 -19 104 -11 127 11 10 10 22 39 26 63 6 43
6 45 -19 45 -14 0 -38 -7 -53 -14 -52 -27 -84 17 -54 75 26 49 135 93 176 71
17 -9 19 -30 20 -345 0 -184 3 -341 6 -349 3 -7 -2 -16 -10 -19 -9 -4 -16 -1
-16 5 0 6 -3 9 -6 6 -3 -3 2 -29 12 -57 18 -57 29 -65 14 -10 -6 18 -10 37
-10 42 0 4 29 5 64 1 50 -5 70 -3 92 10 l29 17 -3 341 c-2 308 -1 343 14 359
33 37 95 14 124 -47 15 -30 20 -61 20 -125 0 -142 -27 -199 -95 -199 -19 0
-35 -4 -35 -10 0 -15 47 -23 103 -16 71 8 125 47 160 116 25 49 28 64 25 131
-3 64 -7 81 -30 112 -33 42 -33 44 -10 50 9 3 0 5 -21 6 -21 0 -48 6 -60 13
-46 24 -132 33 -267 27z"/>
<path d="M5210 5246 c-157 -36 -232 -103 -233 -209 -1 -44 3 -53 31 -78 25
-23 42 -29 77 -29 56 0 85 25 85 74 0 48 -23 64 -61 42 -36 -21 -65 -14 -73
19 -9 34 16 78 56 103 26 16 127 52 145 52 2 0 3 -74 3 -165 l0 -165 -40 0
c-36 0 -40 -2 -40 -25 0 -22 4 -25 39 -25 l39 0 4 -132 c3 -110 6 -138 22
-161 43 -63 161 -91 287 -67 38 7 69 16 69 20 0 4 23 21 51 40 66 43 53 63
-21 31 -60 -26 -132 -35 -175 -23 -49 13 -64 56 -64 184 l0 109 82 -1 c141 -2
137 -3 137 25 l0 25 -110 0 -110 0 1 165 0 165 60 0 c62 0 147 -16 164 -31 5
-5 17 -9 27 -9 22 0 36 46 19 63 -17 17 -399 20 -471 3z"/>
<path d="M3920 5240 c8 -5 22 -9 30 -9 10 0 8 3 -5 9 -27 12 -43 12 -25 0z"/>
<path d="M4248 5243 c6 -2 18 -2 25 0 6 3 1 5 -13 5 -14 0 -19 -2 -12 -5z"/>
<path d="M4188 5233 c6 -2 18 -2 25 0 6 3 1 5 -13 5 -14 0 -19 -2 -12 -5z"/>
<path d="M2590 5208 c-13 -7 -31 -25 -39 -39 -13 -24 -13 -29 3 -53 45 -69
159 -48 159 30 0 52 -72 88 -123 62z"/>
<path d="M2883 5205 c-91 -39 -23 -156 74 -124 66 21 71 98 8 125 -41 17 -42
17 -82 -1z"/>
<path d="M4420 5210 c0 -5 5 -10 11 -10 5 0 7 5 4 10 -3 6 -8 10 -11 10 -2 0
-4 -4 -4 -10z"/>
<path d="M6380 5213 c-28 -11 -60 -46 -60 -67 1 -50 61 -84 117 -65 37 12 53
34 53 73 0 38 -69 75 -110 59z"/>
<path d="M7041 5209 c-52 -21 -66 -72 -28 -106 32 -29 56 -35 94 -22 62 20 74
87 21 119 -36 22 -51 23 -87 9z"/>
<path d="M4450 5206 c0 -2 7 -7 16 -10 8 -3 12 -2 9 4 -6 10 -25 14 -25 6z"/>
<path d="M6741 5135 c-15 -43 -84 -103 -128 -111 -43 -8 -47 -41 -5 -46 l27
-3 2 -210 c2 -124 7 -221 14 -237 31 -76 167 -75 232 1 37 45 37 74 -1 38 -32
-31 -54 -34 -73 -11 -10 13 -10 17 2 25 10 6 10 9 2 9 -10 0 -13 46 -13 195
l0 195 58 0 c76 0 104 19 100 67 -4 46 -33 67 -54 39 -12 -17 -12 -22 1 -36
24 -26 19 -30 -45 -30 l-60 0 0 75 c0 72 -1 75 -23 75 -17 0 -26 -9 -36 -35z"/>
<path d="M870 5115 c-8 -9 -8 -15 -2 -15 12 0 26 19 19 26 -2 2 -10 -2 -17
-11z"/>
<path d="M4658 5123 c7 -3 16 -2 19 1 4 3 -2 6 -13 5 -11 0 -14 -3 -6 -6z"/>
<path d="M4691 5126 c2 -2 24 -6 49 -9 30 -4 38 -3 25 3 -19 8 -83 14 -74 6z"/>
<path d="M3638 5103 c7 -3 16 -2 19 1 4 3 -2 6 -13 5 -11 0 -14 -3 -6 -6z"/>
<path d="M3440 5080 l-45 -7 48 -1 c26 -1 47 3 47 8 0 6 -1 9 -2 8 -2 0 -23
-4 -48 -8z"/>
<path d="M3558 5083 c7 -3 16 -2 19 1 4 3 -2 6 -13 5 -11 0 -14 -3 -6 -6z"/>
<path d="M4868 5083 c7 -3 16 -2 19 1 4 3 -2 6 -13 5 -11 0 -14 -3 -6 -6z"/>
<path d="M10100 5040 c0 -5 5 -10 10 -10 6 0 10 5 10 10 0 6 -4 10 -10 10 -5
0 -10 -4 -10 -10z"/>
<path d="M1533 5004 c-62 -27 -87 -56 -87 -99 0 -35 27 -75 51 -75 7 0 13 -5
13 -11 0 -7 14 3 31 20 18 19 28 39 25 48 -3 8 -6 24 -6 36 0 15 -3 18 -8 9
-10 -15 -45 -5 -39 11 2 6 11 15 20 21 13 8 20 7 27 -4 8 -13 10 -12 10 3 0
27 56 22 85 -8 33 -32 33 -85 3 -119 -21 -22 -135 -72 -145 -63 -7 8 -74 -57
-89 -85 -19 -36 -18 -138 1 -164 19 -28 75 -54 116 -54 38 0 118 36 126 56 7
20 21 17 28 -6 4 -11 20 -27 37 -36 54 -28 134 -4 167 49 10 16 9 17 -15 11
-17 -4 -29 -2 -35 7 -5 8 -9 92 -9 187 0 147 -3 178 -17 204 -29 48 -74 69
-163 77 -68 6 -86 4 -127 -15z m131 -230 c24 -9 22 -171 -2 -200 -28 -34 -50
-37 -78 -9 -19 19 -24 34 -24 77 0 74 26 114 87 137 1 1 8 -2 17 -5z"/>
<path d="M3805 5019 c-92 -12 -149 -56 -149 -114 0 -78 92 -104 117 -32 7 18
-17 50 -44 60 -26 9 16 39 63 44 39 5 48 2 73 -22 23 -24 26 -34 22 -68 -7
-52 -26 -69 -117 -102 -123 -46 -175 -122 -150 -216 28 -102 151 -132 236 -57
29 26 37 29 45 17 5 -8 9 -17 9 -22 0 -4 15 -15 34 -23 43 -21 95 -12 136 22
35 30 39 44 9 37 -12 -4 -25 0 -30 8 -5 8 -9 92 -9 188 0 156 -2 177 -20 206
-34 56 -129 87 -225 74z m73 -251 c7 -7 12 -43 12 -93 0 -93 -18 -125 -70
-125 -24 0 -30 6 -40 36 -7 20 -10 59 -7 87 3 41 11 56 36 79 34 31 51 34 69
16z"/>
<path d="M1963 5000 c-46 -21 -59 -44 -19 -34 18 4 27 1 35 -14 15 -28 15
-105 0 -96 -8 5 -8 1 0 -14 7 -13 11 -83 11 -180 0 -181 4 -192 76 -192 35 1
128 39 97 40 -10 0 -13 45 -13 190 l0 189 25 26 c39 38 70 33 95 -15 32 -59
20 -360 -16 -431 -7 -15 -26 -36 -41 -47 -25 -18 -26 -21 -10 -28 31 -11 109
26 157 75 67 68 85 131 85 296 0 116 -2 135 -24 178 -40 82 -119 101 -203 48
-25 -16 -49 -34 -52 -40 -11 -18 -26 -13 -26 9 0 11 -9 29 -20 40 -26 26 -100
26 -157 0z"/>
<path d="M2541 5002 c-38 -19 -54 -44 -23 -36 38 11 43 -13 40 -232 l-3 -209
-50 2 -50 2 54 -11 53 -10 -6 -45 c-3 -25 -11 -63 -16 -84 -30 -109 -144 -143
-194 -58 -20 35 -35 33 -56 -4 -14 -24 -13 -28 5 -47 28 -27 110 -41 178 -30
68 11 122 38 164 82 33 34 72 110 73 140 0 9 7 24 16 32 8 9 11 16 5 16 -8 0
-11 75 -11 235 0 222 -1 236 -20 255 -26 26 -111 27 -159 2z"/>
<path d="M2833 5000 c-46 -21 -59 -44 -19 -34 41 10 46 -16 46 -250 0 -254 -3
-246 98 -245 37 0 61 3 55 6 -10 3 -10 10 -2 24 6 13 9 103 7 250 -3 229 -3
231 -27 250 -31 25 -103 25 -158 -1z"/>
<path d="M3073 4999 c-39 -25 -43 -38 -10 -32 27 5 61 -38 100 -127 28 -63
147 -416 147 -435 0 -34 -117 -110 -179 -118 -39 -5 -46 -2 -72 26 -24 26 -32
30 -47 21 -25 -16 -27 -57 -2 -79 16 -14 35 -19 83 -18 119 2 236 78 326 214
87 129 133 268 147 445 7 96 -3 124 -44 124 -44 0 -51 -14 -35 -73 19 -68 10
-175 -23 -278 -13 -43 -28 -81 -33 -83 -4 -3 -25 47 -46 112 -48 151 -104 272
-140 300 -38 30 -126 30 -172 1z"/>
<path d="M4173 5000 c-46 -21 -59 -44 -19 -34 40 10 45 -16 45 -247 1 -206 2
-215 22 -231 26 -22 88 -23 115 -4 17 13 19 30 22 197 2 116 7 188 14 197 15
17 83 52 103 52 8 0 24 -9 36 -21 25 -25 29 -22 36 29 7 56 -9 82 -53 82 -28
0 -45 -9 -83 -45 -26 -25 -51 -45 -55 -45 -3 0 -6 11 -6 25 0 61 -91 85 -177
45z"/>
<path d="M6313 5000 c-46 -21 -59 -44 -19 -34 42 10 47 -17 45 -247 -1 -202 0
-211 20 -233 18 -20 28 -22 66 -16 78 12 75 2 75 276 0 240 0 243 -22 258 -31
22 -114 20 -165 -4z"/>
<path d="M6983 4999 c-44 -22 -60 -46 -23 -34 46 15 50 -2 50 -239 -1 -214 0
-222 21 -238 30 -25 94 -23 119 2 19 19 20 33 20 249 0 216 -1 230 -21 255
-17 22 -28 26 -72 26 -33 0 -68 -8 -94 -21z"/>
<path d="M7405 5001 c-89 -41 -140 -133 -138 -251 2 -126 43 -205 129 -251 65
-34 137 -38 201 -9 96 42 142 116 152 246 4 45 3 88 0 95 -4 8 -15 33 -24 56
-21 50 -67 97 -117 117 -51 22 -153 20 -203 -3z m135 -41 c32 -17 44 -77 44
-210 0 -139 -12 -192 -50 -217 -37 -24 -68 -5 -88 53 -19 57 -22 262 -5 315
22 63 54 83 99 59z"/>
<path d="M7831 5002 c-35 -17 -57 -48 -27 -36 30 12 46 -15 46 -77 0 -58 0
-58 -32 -62 l-33 -4 33 -1 32 -2 0 -159 c0 -154 1 -160 22 -175 30 -21 91 -20
117 2 20 16 21 27 22 205 1 186 1 188 26 218 33 39 71 37 93 -6 12 -23 15 -68
15 -200 0 -196 -13 -252 -68 -285 -24 -15 -28 -20 -15 -25 34 -13 99 16 153
68 44 43 57 64 74 121 12 37 21 92 21 122 0 31 4 54 11 54 5 0 7 4 4 10 -3 5
-10 38 -16 72 -12 81 -45 153 -76 167 -31 14 -98 14 -126 0 -12 -6 -39 -27
-59 -47 -35 -34 -38 -35 -38 -14 0 13 -11 34 -25 47 -30 31 -102 34 -154 7z"/>
<path d="M415 4855 c-16 -7 -23 -14 -14 -14 8 -1 24 6 35 14 24 18 18 18 -21
0z"/>
<path d="M8048 4863 c6 -2 18 -2 25 0 6 3 1 5 -13 5 -14 0 -19 -2 -12 -5z"/>
<path d="M350 4825 c-14 -8 -20 -14 -14 -15 5 0 19 7 30 15 24 18 16 19 -16 0z"/>
<path d="M8674 4777 c-23 -34 -74 -116 -114 -182 -64 -106 -76 -132 -96 -224
-13 -57 -22 -106 -20 -108 2 -2 43 23 91 57 81 58 131 113 119 132 -9 14 -22
9 -29 -12 -5 -17 -73 -74 -124 -105 -37 -22 36 198 84 255 7 8 34 56 60 105
26 50 56 102 67 118 11 15 16 27 11 27 -4 0 -27 -28 -49 -63z"/>
<path d="M3082 4785 c0 -16 2 -22 5 -12 2 9 2 23 0 30 -3 6 -5 -1 -5 -18z"/>
<path d="M280 4790 c-8 -5 -10 -10 -5 -10 6 0 17 5 25 10 8 5 11 10 5 10 -5 0
-17 -5 -25 -10z"/>
<path d="M220 4761 c-21 -12 -47 -39 -65 -70 -16 -28 -32 -51 -35 -51 -10 0
-32 -52 -25 -58 3 -3 5 0 5 6 0 6 12 26 28 44 15 18 36 50 46 71 11 20 25 37
31 37 7 0 23 9 36 20 30 24 24 24 -21 1z"/>
<path d="M6925 4645 c-22 -14 -36 -25 -31 -25 10 0 76 40 76 46 0 6 -2 5 -45
-21z"/>
<path d="M9928 4633 c7 -3 16 -2 19 1 4 3 -2 6 -13 5 -11 0 -14 -3 -6 -6z"/>
<path d="M71 4514 c0 -11 3 -14 6 -6 3 7 2 16 -1 19 -3 4 -6 -2 -5 -13z"/>
<path d="M1208 4523 c7 -3 16 -2 19 1 4 3 -2 6 -13 5 -11 0 -14 -3 -6 -6z"/>
<path d="M1248 4523 c7 -3 16 -2 19 1 4 3 -2 6 -13 5 -11 0 -14 -3 -6 -6z"/>
<path d="M2238 4523 c7 -3 16 -2 19 1 4 3 -2 6 -13 5 -11 0 -14 -3 -6 -6z"/>
<path d="M3082 4495 c0 -16 2 -22 5 -12 2 9 2 23 0 30 -3 6 -5 -1 -5 -18z"/>
<path d="M5740 4510 c-8 -5 -10 -10 -5 -10 6 0 17 5 25 10 8 5 11 10 5 10 -5
0 -17 -5 -25 -10z"/>
<path d="M5190 4468 c0 -5 30 -7 68 -7 69 2 62 6 -20 11 -27 2 -48 0 -48 -4z"/>
<path d="M40 4451 c-6 -12 -7 -21 -1 -21 10 0 24 30 17 37 -2 3 -9 -5 -16 -16z"/>
<path d="M1610 4462 c0 -12 19 -26 26 -19 2 2 -2 10 -11 17 -9 8 -15 8 -15 2z"/>
<path d="M1965 4460 c-3 -5 -2 -10 4 -10 5 0 13 5 16 10 3 6 2 10 -4 10 -5 0
-13 -4 -16 -10z"/>
<path d="M5030 4440 c0 -5 5 -10 10 -10 6 0 10 5 10 10 0 6 -4 10 -10 10 -5 0
-10 -4 -10 -10z"/>
<path d="M5418 4443 c7 -3 16 -2 19 1 4 3 -2 6 -13 5 -11 0 -14 -3 -6 -6z"/>
<path d="M4930 4409 c-71 -27 -83 -29 -233 -29 l-158 0 3 -52 c3 -52 4 -53 38
-58 19 -3 116 -3 215 0 l180 5 0 50 0 50 -45 5 -45 5 57 18 c32 10 60 22 63
27 4 6 5 10 3 9 -2 -1 -37 -14 -78 -30z"/>
<path d="M12 4395 c-17 -37 -14 -45 4 -12 9 16 14 31 11 33 -2 2 -9 -7 -15
-21z"/>
<path d="M1875 4340 c-9 -16 -13 -30 -11 -30 3 0 12 14 21 30 9 17 13 30 11
30 -3 0 -12 -13 -21 -30z"/>
<path d="M911 4314 c0 -11 3 -14 6 -6 3 7 2 16 -1 19 -3 4 -6 -2 -5 -13z"/>
<path d="M1814 4258 l-29 -33 33 29 c30 28 37 36 29 36 -2 0 -16 -15 -33 -32z"/>
<path d="M935 4252 c1 -16 5 -34 10 -42 5 -7 12 -41 16 -74 l7 -61 -3 60 c-5
83 -16 145 -24 145 -4 0 -7 -13 -6 -28z"/>
<path d="M4578 4243 c7 -3 16 -2 19 1 4 3 -2 6 -13 5 -11 0 -14 -3 -6 -6z"/>
<path d="M4519 4213 c-13 -15 -12 -15 11 -3 34 17 36 20 18 20 -9 0 -22 -7
-29 -17z"/>
<path d="M4420 4135 c-11 -13 -10 -14 4 -9 9 3 16 10 16 15 0 13 -6 11 -20 -6z"/>
<path d="M4265 4110 c-3 -5 -2 -10 4 -10 5 0 13 5 16 10 3 6 2 10 -4 10 -5 0
-13 -4 -16 -10z"/>
<path d="M951 4060 c0 -8 4 -22 9 -30 12 -18 12 -2 0 25 -6 13 -9 15 -9 5z"/>
<path d="M4201 4024 c0 -11 3 -14 6 -6 3 7 2 16 -1 19 -3 4 -6 -2 -5 -13z"/>
<path d="M4242 4031 c-11 -6 -10 -10 4 -15 10 -4 24 0 33 9 14 13 13 15 -4 15
-11 0 -26 -4 -33 -9z"/>
<path d="M963 3975 c0 -22 2 -30 4 -17 2 12 2 30 0 40 -3 9 -5 -1 -4 -23z"/>
<path d="M1649 3993 c-13 -16 -12 -17 4 -4 9 7 17 15 17 17 0 8 -8 3 -21 -13z"/>
<path d="M5327 4003 c-4 -3 -7 -11 -7 -17 0 -6 5 -5 12 2 6 6 9 14 7 17 -3 3
-9 2 -12 -2z"/>
<path d="M3595 3990 c-3 -5 -2 -10 4 -10 5 0 13 5 16 10 3 6 2 10 -4 10 -5 0
-13 -4 -16 -10z"/>
<path d="M6196 3983 c-6 -14 -5 -15 5 -6 7 7 10 15 7 18 -3 3 -9 -2 -12 -12z"/>
<path d="M971 3914 c0 -11 3 -14 6 -6 3 7 2 16 -1 19 -3 4 -6 -2 -5 -13z"/>
<path d="M2208 3888 c-7 -17 -57 -18 -805 -20 l-798 -3 -3 -27 -3 -28 193 0
c106 0 460 0 787 0 l593 0 -5 -22 -6 -23 19 23 c19 23 20 23 227 20 114 -2
217 -7 228 -12 16 -6 17 -6 5 3 -18 14 1123 11 1155 -2 16 -7 17 -7 5 2 -11 8
199 11 747 11 600 0 762 -3 766 -12 4 -10 6 -10 6 0 1 10 212 12 1035 12 894
-1 1036 -3 1046 -15 7 -8 17 -12 23 -8 6 4 3 9 -9 14 -17 7 303 8 1864 9 l442
0 0 30 0 30 -1782 0 c-981 0 -2668 0 -3750 0 -1867 0 -1967 1 -1970 17 -3 17
-4 17 -10 1z"/>
<path d="M3066 3783 c-6 -14 -5 -15 5 -6 7 7 10 15 7 18 -3 3 -9 -2 -12 -12z"/>
<path d="M6119 3773 c-13 -16 -12 -17 4 -4 16 13 21 21 13 21 -2 0 -10 -8 -17
-17z"/>
<path d="M7518 3783 c7 -3 16 -2 19 1 4 3 -2 6 -13 5 -11 0 -14 -3 -6 -6z"/>
<path d="M7568 3783 c7 -3 16 -2 19 1 4 3 -2 6 -13 5 -11 0 -14 -3 -6 -6z"/>
<path d="M982 3765 c-8 -10 -32 -15 -67 -15 -30 0 -57 -5 -60 -10 -6 -10 14
-9 112 6 17 2 34 11 37 19 7 19 -5 19 -22 0z"/>
<path d="M2690 3776 c0 -2 18 -6 40 -8 22 -2 40 0 40 4 0 5 -18 8 -40 8 -22 0
-40 -2 -40 -4z"/>
<path d="M7698 3773 c12 -2 32 -2 45 0 12 2 2 4 -23 4 -25 0 -35 -2 -22 -4z"/>
<path d="M7778 3773 c7 -3 16 -2 19 1 4 3 -2 6 -13 5 -11 0 -14 -3 -6 -6z"/>
<path d="M2863 3763 c9 -2 25 -2 35 0 9 3 1 5 -18 5 -19 0 -27 -2 -17 -5z"/>
<path d="M7858 3763 c18 -2 45 -2 60 0 15 2 0 4 -33 4 -33 0 -45 -2 -27 -4z"/>
<path d="M8618 3763 c6 -2 18 -2 25 0 6 3 1 5 -13 5 -14 0 -19 -2 -12 -5z"/>
<path d="M2938 3753 c6 -2 18 -2 25 0 6 3 1 5 -13 5 -14 0 -19 -2 -12 -5z"/>
<path d="M8305 3750 l-30 -8 33 -1 c17 0 32 4 32 9 0 6 -1 9 -2 9 -2 -1 -16
-5 -33 -9z"/>
<path d="M8478 3753 c7 -3 16 -2 19 1 4 3 -2 6 -13 5 -11 0 -14 -3 -6 -6z"/>
<path d="M8028 3743 c7 -3 16 -2 19 1 4 3 -2 6 -13 5 -11 0 -14 -3 -6 -6z"/>
<path d="M8145 3740 c-3 -5 -2 -10 4 -10 5 0 13 5 16 10 3 6 2 10 -4 10 -5 0
-13 -4 -16 -10z"/>
<path d="M8238 3743 c7 -3 16 -2 19 1 4 3 -2 6 -13 5 -11 0 -14 -3 -6 -6z"/>
<path d="M743 3733 c8 -7 77 -6 85 2 3 3 -16 5 -43 5 -27 0 -45 -3 -42 -7z"/>
<path d="M645 3720 c-16 -4 -49 -8 -72 -9 -23 0 -44 -5 -47 -10 -3 -5 16 -6
42 -4 67 7 173 31 137 31 -16 0 -43 -4 -60 -8z"/>
<path d="M2116 3685 c-9 -26 -7 -32 5 -12 6 10 9 21 6 23 -2 3 -7 -2 -11 -11z"/>
<path d="M410 3680 c-13 -8 -13 -10 2 -10 9 0 20 5 23 10 8 13 -5 13 -25 0z"/>
<path d="M458 3683 c7 -3 16 -2 19 1 4 3 -2 6 -13 5 -11 0 -14 -3 -6 -6z"/>
<path d="M348 3663 c6 -2 18 -2 25 0 6 3 1 5 -13 5 -14 0 -19 -2 -12 -5z"/>
<path d="M239 3573 c-13 -16 -12 -17 4 -4 9 7 17 15 17 17 0 8 -8 3 -21 -13z"/>
<path d="M1032 3570 c0 -14 2 -19 5 -12 2 6 2 18 0 25 -3 6 -5 1 -5 -13z"/>
<path d="M2056 3575 c-9 -26 -7 -32 5 -12 6 10 9 21 6 23 -2 3 -7 -2 -11 -11z"/>
<path d="M3190 3580 c-8 -5 -10 -10 -5 -10 6 0 17 5 25 10 8 5 11 10 5 10 -5
0 -17 -5 -25 -10z"/>
<path d="M3125 3549 c-16 -10 -25 -19 -20 -19 6 0 24 9 40 20 17 11 26 20 20
19 -5 0 -23 -9 -40 -20z"/>
<path d="M3068 3523 c7 -3 16 -2 19 1 4 3 -2 6 -13 5 -11 0 -14 -3 -6 -6z"/>
<path d="M2016 3463 c-6 -14 -5 -15 5 -6 7 7 10 15 7 18 -3 3 -9 -2 -12 -12z"/>
<path d="M3021 3457 c-13 -21 -12 -21 5 -5 10 10 16 20 13 22 -3 3 -11 -5 -18
-17z"/>
<path d="M1040 3451 c0 -5 5 -13 10 -16 6 -3 10 -2 10 4 0 5 -4 13 -10 16 -5
3 -10 2 -10 -4z"/>
<path d="M1056 3395 c4 -8 8 -15 10 -15 2 0 4 7 4 15 0 8 -4 15 -10 15 -5 0
-7 -7 -4 -15z"/>
<path d="M1971 3363 c-7 -8 -11 -16 -8 -19 2 -2 10 2 17 11 17 20 9 27 -9 8z"/>
<path d="M1061 3344 c0 -11 3 -14 6 -6 3 7 2 16 -1 19 -3 4 -6 -2 -5 -13z"/>
<path d="M4773 3353 c9 -2 23 -2 30 0 6 3 -1 5 -18 5 -16 0 -22 -2 -12 -5z"/>
<path d="M1926 3268 l-18 -33 21 25 c18 22 26 40 18 40 -1 0 -11 -15 -21 -32z"/>
<path d="M1120 3215 c0 -5 5 -17 10 -25 5 -8 10 -10 10 -5 0 6 -5 17 -10 25
-5 8 -10 11 -10 5z"/>
<path d="M1891 3193 c0 -6 -4 -20 -7 -30 -5 -14 -4 -15 5 -7 7 7 11 20 8 30
-3 11 -5 14 -6 7z"/>
<path d="M1140 3150 c0 -8 5 -22 10 -30 9 -13 10 -13 10 0 0 8 -5 22 -10 30
-9 13 -10 13 -10 0z"/>
<path d="M671 3107 c-29 -35 -30 -38 -7 -17 24 22 52 60 44 60 -2 0 -18 -19
-37 -43z"/>
<path d="M5465 3120 c-25 -11 1 -11 35 0 20 6 21 8 5 8 -11 0 -29 -3 -40 -8z"/>
<path d="M1855 3049 c-4 -6 -5 -12 -2 -15 2 -3 7 2 10 11 7 17 1 20 -8 4z"/>
<path d="M7318 3013 c12 -2 30 -2 40 0 9 3 -1 5 -23 4 -22 0 -30 -2 -17 -4z"/>
<path d="M7098 2983 c6 -2 18 -2 25 0 6 3 1 5 -13 5 -14 0 -19 -2 -12 -5z"/>
<path d="M1409 2917 c5 -5 26 -7 47 -5 l39 3 -47 5 c-26 3 -43 1 -39 -3z"/>
<path d="M240 2909 c0 -5 5 -7 10 -4 6 3 10 8 10 11 0 2 -4 4 -10 4 -5 0 -10
-5 -10 -11z"/>
<path d="M1288 2913 c6 -2 18 -2 25 0 6 3 1 5 -13 5 -14 0 -19 -2 -12 -5z"/>
<path d="M1588 2903 c7 -3 16 -2 19 1 4 3 -2 6 -13 5 -11 0 -14 -3 -6 -6z"/>
<path d="M4003 2893 c9 -2 23 -2 30 0 6 3 -1 5 -18 5 -16 0 -22 -2 -12 -5z"/>
<path d="M236 2865 c-3 -9 0 -15 9 -15 9 0 12 6 9 15 -4 8 -7 15 -9 15 -2 0
-5 -7 -9 -15z"/>
<path d="M1201 2864 c0 -11 3 -14 6 -6 3 7 2 16 -1 19 -3 4 -6 -2 -5 -13z"/>
<path d="M1049 2760 c-19 -10 -42 -27 -50 -36 -10 -14 -6 -13 18 4 17 12 35
22 41 22 5 0 15 7 22 15 16 19 13 18 -31 -5z"/>
<path d="M3423 2733 c9 -2 25 -2 35 0 9 3 1 5 -18 5 -19 0 -27 -2 -17 -5z"/>
<path d="M1747 2702 l-1747 -2 0 -1350 0 -1350 5165 0 5165 0 0 1350 0 1350
-3067 0 c-1688 0 -3225 1 -3418 3 -192 1 -1136 1 -2098 -1z"/>
</g>
</svg>
